<?xml version="1.0" encoding="utf-8"?>
<!-- Generator: Adobe Illustrator 21.0.2, SVG Export Plug-In . SVG Version: 6.00 Build 0)  -->
<svg version="1.1" xmlns="http://www.w3.org/2000/svg" xmlns:xlink="http://www.w3.org/1999/xlink" x="0px" y="0px"
	 viewBox="0 0 332 200" style="enable-background:new 0 0 332 200;" xml:space="preserve">
<style type="text/css">
	.st0{fill:none;stroke:#262626;stroke-width:4;stroke-linecap:round;stroke-linejoin:round;stroke-miterlimit:10;}
</style>
<g id="Layer_1">
	<polyline class="st0" points="111.7,131 111.7,27.7 246.4,27.7 246.4,137.8 176.4,137.8 	"/>
	<rect x="106.7" y="131.3" class="st0" width="18" height="12.7"/>
	<rect x="302.6" y="131.3" class="st0" width="18" height="12.7"/>
	<line class="st0" x1="124.7" y1="137.8" x2="137.4" y2="137.8"/>
	<circle class="st0" cx="157.1" cy="137.8" r="19.1"/>
	<circle class="st0" cx="157.1" cy="137.8" r="7.7"/>
	<circle class="st0" cx="277.2" cy="137.8" r="19.1"/>
	<circle class="st0" cx="277.2" cy="137.8" r="7.7"/>
	<line class="st0" x1="246.4" y1="137.8" x2="258.1" y2="137.8"/>
	<line class="st0" x1="296.2" y1="137.8" x2="302.6" y2="137.8"/>
	<polyline class="st0" points="315.7,131.3 315.7,96.3 299.4,86 279.6,37.5 246.4,37.5 	"/>
	<polygon class="st0" points="253.2,44 274.9,44 290.4,83.6 253.2,83.6 	"/>
	<line class="st0" x1="253.2" y1="91.6" x2="262" y2="91.6"/>
	<path class="st0" d="M106.7,157.4H37.7c0,0,0.9-14.2,15.4-14.2c10.6,0,12.8,7.1,12.8,7.1S68.5,140,82.4,140
		c8.6,0,14.4,6.5,14.4,7.9C101.7,147.9,106.7,153.1,106.7,157.4z"/>
	<path class="st0" d="M32,157.4H19.9c0,0,1.4-5.8,6.1-5.8S32,157.4,32,157.4z"/>
	<line class="st0" x1="99.1" y1="55.9" x2="13.7" y2="55.9"/>
	<line class="st0" x1="90.4" y1="66" x2="41.1" y2="66"/>
</g>
<g id="Layer_2">
</g>
</svg>
