<?xml version="1.0" encoding="utf-8"?>
<!-- Generator: Adobe Illustrator 21.0.2, SVG Export Plug-In . SVG Version: 6.00 Build 0)  -->
<svg version="1.1" id="Layer_1" xmlns="http://www.w3.org/2000/svg" xmlns:xlink="http://www.w3.org/1999/xlink" x="0px" y="0px"
	 viewBox="0 0 200 200" style="enable-background:new 0 0 200 200;" xml:space="preserve">
<style type="text/css">
	.st0{fill:none;stroke:#262626;stroke-width:4;stroke-linecap:round;stroke-linejoin:round;stroke-miterlimit:10;}
</style>
<g>
	<circle class="st0" cx="29.3" cy="51.6" r="11.3"/>
	<circle class="st0" cx="163.3" cy="51.6" r="11.3"/>
	<line class="st0" x1="41.4" y1="52" x2="79.4" y2="52"/>
	<line class="st0" x1="113.4" y1="52" x2="151.4" y2="52"/>
	<path class="st0" d="M107.4,70h-22c-3.3,0-6-2.7-6-6V39c0-3.3,2.7-6,6-6h22c3.3,0,6,2.7,6,6v25C113.4,67.3,110.7,70,107.4,70z"/>
	<path class="st0" d="M24.4,105c0,0,7-53,55-53"/>
	<path class="st0" d="M168.4,105c0,0-7-53-55-53"/>
</g>
<line class="st0" x1="60.3" y1="178" x2="132.3" y2="178"/>
<g>
	<polyline class="st0" points="71,178 60.3,136 92.3,86 92.3,149 	"/>
	<polyline class="st0" points="121.6,178 132.3,136 100.3,86 100.3,149 	"/>
	<circle class="st0" cx="96.3" cy="160" r="11"/>
</g>
</svg>
