<?xml version="1.0" encoding="utf-8"?>
<!-- Generator: Adobe Illustrator 21.0.2, SVG Export Plug-In . SVG Version: 6.00 Build 0)  -->
<svg version="1.1" xmlns="http://www.w3.org/2000/svg" xmlns:xlink="http://www.w3.org/1999/xlink" x="0px" y="0px"
	 viewBox="0 0 200 200" style="enable-background:new 0 0 200 200;" xml:space="preserve">
<style type="text/css">
	.st0{fill:none;stroke:#262626;stroke-width:4;stroke-linecap:round;stroke-linejoin:round;stroke-miterlimit:10;}
</style>
<g id="Layer_1">
	<path class="st0" d="M127.3,110.8c0,0-16.7,24.4-53.5-2.5c-8.4,5.1,0.1,15.5,4.7,17.5c4.5,2.1,16.5,6.6,20.7,11.9"/>
	<path class="st0" d="M150.6,78.2l-24.7,24.7c-1.8,1.8-1.8,4.8,0,6.6l33.3,33.3c1.8,1.8,4.8,1.8,6.6,0l24.7-24.7"/>
	<path class="st0" d="M100.9,147.9l-13.7,13.7c-2.3,2.3-6.1,2.3-8.4,0l0,0c-2.3-2.3-2.3-6.1,0-8.4l13.7-13.7c2.3-2.3,6.1-2.3,8.4,0
		h0C103.2,141.8,103.2,145.6,100.9,147.9z"/>
	<path class="st0" d="M111.4,154.1l-18,18c-2.3,2.3-6.1,2.3-8.4,0h0c-2.3-2.3-2.3-6.1,0-8.4l18-18c2.3-2.3,6.1-2.3,8.4,0l0,0
		C113.7,148,113.7,151.8,111.4,154.1z"/>
	<path class="st0" d="M116.7,165.6l-11.7,11.7c-2.3,2.3-6.1,2.3-8.4,0h0c-2.3-2.3-2.3-6.1,0-8.4l11.7-11.7c2.3-2.3,6.1-2.3,8.4,0
		l0,0C119,159.5,119,163.3,116.7,165.6z"/>
	<path class="st0" d="M123.3,175.6L115,184c-2.3,2.3-6.1,2.3-8.4,0l0,0c-2.3-2.3-2.3-6.1,0-8.4l8.4-8.4c2.3-2.3,6.1-2.3,8.4,0h0
		C125.6,169.5,125.6,173.3,123.3,175.6z"/>
	<line class="st0" x1="124.2" y1="174.7" x2="157.7" y2="141.2"/>
	<path class="st0" d="M104.4,134c0,0,13.4,10.9,24.3,0"/>
	<path class="st0" d="M70.9,89.2c0,0,16.7-24.4,53.5,2.5c8.4-5.1-0.1-15.5-4.7-17.5c-4.5-2.1-16.5-6.6-20.7-11.9"/>
	<path class="st0" d="M47.6,121.8l24.7-24.7c1.8-1.8,1.8-4.8,0-6.6L39,57.3c-1.8-1.8-4.8-1.8-6.6,0L7.8,82"/>
	<path class="st0" d="M97.3,52.1L111,38.4c2.3-2.3,6.1-2.3,8.4,0l0,0c2.3,2.3,2.3,6.1,0,8.4l-13.7,13.7c-2.3,2.3-6.1,2.3-8.4,0l0,0
		C95,58.2,95,54.4,97.3,52.1z"/>
	<path class="st0" d="M86.8,45.9l18-18c2.3-2.3,6.1-2.3,8.4,0l0,0c2.3,2.3,2.3,6.1,0,8.4l-18,18c-2.3,2.3-6.1,2.3-8.4,0l0,0
		C84.5,52,84.5,48.2,86.8,45.9z"/>
	<path class="st0" d="M81.6,34.4l11.7-11.7c2.3-2.3,6.1-2.3,8.4,0l0,0c2.3,2.3,2.3,6.1,0,8.4L90,42.8c-2.3,2.3-6.1,2.3-8.4,0l0,0
		C79.3,40.5,79.3,36.7,81.6,34.4z"/>
	<path class="st0" d="M74.9,24.4l8.4-8.4c2.3-2.3,6.1-2.3,8.4,0l0,0c2.3,2.3,2.3,6.1,0,8.4l-8.4,8.4c-2.3,2.3-6.1,2.3-8.4,0l0,0
		C72.6,30.5,72.6,26.7,74.9,24.4z"/>
	<line class="st0" x1="74" y1="25.3" x2="40.5" y2="58.8"/>
	<path class="st0" d="M93.8,66c0,0-13.4-10.9-24.3,0"/>
</g>
<g id="Layer_2">
</g>
</svg>
