<?xml version="1.0" encoding="utf-8"?>
<!-- Generator: Adobe Illustrator 21.0.2, SVG Export Plug-In . SVG Version: 6.00 Build 0)  -->
<svg version="1.1" id="Layer_1" xmlns="http://www.w3.org/2000/svg" xmlns:xlink="http://www.w3.org/1999/xlink" x="0px" y="0px"
	 viewBox="0 0 200 200" style="enable-background:new 0 0 200 200;" xml:space="preserve">
<style type="text/css">
	.st0{fill:none;stroke:#262626;stroke-width:4;stroke-linecap:round;stroke-linejoin:round;stroke-miterlimit:10;}
</style>
<path class="st0" d="M44.8,91.2H19 M59.4,54.8L41.1,37.3 M99.4,40.9V16.2 M139.5,54.8l18.3-17.5 M154.1,91.2h25.8 M107.7,115.7
	c0,0,10.3,1.3,10.3-7C118,104.2,107.7,101,107.7,115.7z M92.2,115.7c0,0-10.3,1.3-10.3-7C81.9,104.2,92.2,101,92.2,115.7z M92.2,148
	v-32.4h15.5V148 M89.5,173.8c0,5.8,4.9,10.4,10.9,10.4s10.9-4.7,10.9-10.4 M78.6,161h42.7 M78.6,148.6h42.7 M140.2,96.9
	c0-21.5-18.2-38.9-40.7-38.9C77,58,58.7,75.4,58.7,96.9c0,14.2,8,32.9,19.9,43.9v27.3c0,3.1,2.7,5.7,6,5.7h30.8c3.3,0,6-2.6,6-5.7
	v-28.6C132.3,128.3,140.2,110.4,140.2,96.9z"/>
</svg>
