<?xml version="1.0" encoding="utf-8"?>
<!-- Generator: Adobe Illustrator 21.0.2, SVG Export Plug-In . SVG Version: 6.00 Build 0)  -->
<svg version="1.1" id="Layer_1" xmlns="http://www.w3.org/2000/svg" xmlns:xlink="http://www.w3.org/1999/xlink" x="0px" y="0px"
	 viewBox="0 0 149.8 168.7" style="enable-background:new 0 0 149.8 168.7;" xml:space="preserve">
<style type="text/css">
	.st0{fill:#FFFFFF;}
</style>
<g>
	<polygon class="st0" points="1.5,1.5 1.5,47.3 7.5,47.3 7.5,7.6 142.3,7.6 142.3,161.1 7.5,161.1 7.5,121.4 1.5,121.4 1.5,167.2 
		148.4,167.2 148.4,1.5 	"/>
	<g>
		<path class="st0" d="M2.5,65h1.4v14.1H2.5V65z"/>
		<path class="st0" d="M11.9,79.1V65h0.3l9.4,10.8V65H23v14.1h-0.3l-9.3-10.7v10.7H11.9z"/>
		<path class="st0" d="M30.1,79.1V65h0.3l9.4,10.8V65h1.4v14.1h-0.3l-9.3-10.7v10.7H30.1z"/>
		<path class="st0" d="M48.1,65h1.4v8.5c0,1,0,1.6,0.1,1.9c0.1,0.6,0.2,1,0.5,1.4c0.3,0.4,0.6,0.7,1.2,0.9c0.5,0.3,1.1,0.4,1.6,0.4
			c0.5,0,0.9-0.1,1.3-0.3s0.8-0.5,1.1-0.8c0.3-0.4,0.5-0.8,0.6-1.3c0.1-0.4,0.1-1.1,0.1-2.2V65h1.4v8.5c0,1.3-0.1,2.3-0.4,3.1
			c-0.2,0.8-0.7,1.5-1.5,2c-0.7,0.6-1.6,0.9-2.7,0.9c-1.1,0-2.1-0.3-2.9-0.8c-0.8-0.5-1.4-1.3-1.6-2.2c-0.2-0.5-0.3-1.5-0.3-3V65z"
			/>
		<path class="st0" d="M64,65.2H72v1.4h-6.7V71H72v1.4h-6.6v5.5H72v1.4h-8V65.2z"/>
		<path class="st0" d="M78.2,79.3V65.2h0.3L87.9,76V65.2h1.4v14.1H89l-9.3-10.7v10.7H78.2z"/>
		<path class="st0" d="M95,79.3V65.2h2.9c2.1,0,3.6,0.2,4.6,0.5c1.4,0.5,2.4,1.3,3.2,2.5c0.8,1.2,1.2,2.6,1.2,4.2
			c0,1.4-0.3,2.7-0.9,3.7c-0.6,1.1-1.4,1.9-2.4,2.4c-1,0.5-2.3,0.8-4.1,0.8H95z M96.3,78H98c1.9,0,3.3-0.1,4.1-0.4
			c1.1-0.3,1.9-1,2.5-1.9s0.9-2,0.9-3.3c0-1.4-0.3-2.5-1-3.5c-0.7-1-1.6-1.6-2.7-2c-0.9-0.3-2.3-0.4-4.4-0.4h-1V78z"/>
		<path class="st0" d="M118.1,64.8c2.1,0,3.9,0.7,5.4,2.1c1.4,1.4,2.2,3.2,2.2,5.3c0,2.1-0.7,3.8-2.2,5.2c-1.4,1.4-3.2,2.2-5.2,2.2
			c-2.1,0-3.9-0.7-5.3-2.1s-2.2-3.2-2.2-5.2c0-1.4,0.3-2.6,1-3.8c0.7-1.2,1.5-2.1,2.7-2.7C115.6,65.2,116.8,64.8,118.1,64.8z
			 M118.2,66.2c-1,0-2,0.3-3,0.8c-0.9,0.5-1.7,1.3-2.2,2.2c-0.5,0.9-0.8,1.9-0.8,3.1c0,1.7,0.6,3.1,1.7,4.2c1.2,1.2,2.6,1.7,4.2,1.7
			c1.1,0,2.1-0.3,3-0.8c0.9-0.5,1.7-1.3,2.2-2.2c0.5-0.9,0.8-1.9,0.8-3.1c0-1.1-0.3-2.1-0.8-3c-0.5-0.9-1.3-1.6-2.2-2.2
			C120.2,66.5,119.2,66.2,118.2,66.2z"/>
	</g>
	<path class="st0" d="M2.5,89.2h3.2c2.1,0,3.6,0.3,4.6,0.8c1,0.5,1.8,1.3,2.5,2.5c0.6,1.1,1,2.5,1,4c0,1.1-0.2,2.1-0.5,3
		c-0.4,0.9-0.9,1.7-1.5,2.3c-0.6,0.6-1.3,1-2.1,1.3s-2,0.3-3.9,0.3H2.5V89.2z M5.2,91.8v8.9h1.3c1.2,0,2.1-0.1,2.7-0.4
		c0.6-0.3,1-0.8,1.4-1.4c0.4-0.7,0.5-1.5,0.5-2.5c0-1.5-0.4-2.7-1.3-3.5c-0.8-0.7-2-1.1-3.6-1.1H5.2z"/>
	<path class="st0" d="M16.1,89.2h2.7v14.2h-2.7V89.2z"/>
	<path class="st0" d="M34.8,91.5l-1.9,1.9c-1.2-1.3-2.6-1.9-4.2-1.9c-1.4,0-2.6,0.5-3.5,1.4c-0.9,0.9-1.4,2-1.4,3.4
		c0,1.4,0.5,2.5,1.5,3.5c1,0.9,2.2,1.4,3.6,1.4c0.9,0,1.7-0.2,2.4-0.6c0.6-0.4,1.2-1,1.5-1.8h-4.1v-2.5h7.1l0,0.6
		c0,1.2-0.3,2.4-1,3.5c-0.6,1.1-1.5,2-2.5,2.5c-1,0.6-2.2,0.9-3.6,0.9c-1.5,0-2.8-0.3-3.9-1c-1.2-0.6-2.1-1.5-2.7-2.7
		c-0.7-1.2-1-2.5-1-3.8c0-1.9,0.6-3.5,1.9-4.9c1.5-1.6,3.4-2.5,5.7-2.5c1.2,0,2.4,0.2,3.5,0.7C33.1,89.9,34,90.6,34.8,91.5z"/>
	<path class="st0" d="M38.1,89.2h2.7v14.2h-2.7V89.2z"/>
	<path class="st0" d="M44.2,89.2H52v2.7h-2.6v11.5h-2.7V91.9h-2.5V89.2z"/>
	<path class="st0" d="M58.2,89.2h2.7l5.4,14.2h-2.8l-1.1-2.9h-5.8l-1.2,2.9h-2.8L58.2,89.2z M59.6,93l-1.9,4.9h3.8L59.6,93z"/>
	<path class="st0" d="M68.4,89.2h2.7v11.6h3.9v2.6h-6.6V89.2z"/>
</g>
</svg>
